<svg width="72" height="72" viewBox="0 0 72 72" fill="none" xmlns="http://www.w3.org/2000/svg">
<circle cx="36" cy="36" r="36" fill="url(#paint0_linear_27_238)"/>
<path d="M46.9467 31.76L38.6667 23.7067C37.9653 23.0398 37.0345 22.668 36.0667 22.668C35.0989 22.668 34.1681 23.0398 33.4667 23.7067L25.1867 31.7067C24.8188 32.0279 24.5229 32.4231 24.3184 32.8666C24.1139 33.31 24.0054 33.7917 24 34.28V45.72C24.0141 46.6902 24.4121 47.6152 25.1068 48.2925C25.8016 48.9698 26.7365 49.3441 27.7067 49.3334H44.2933C45.2635 49.3441 46.1984 48.9698 46.8932 48.2925C47.5879 47.6152 47.9859 46.6902 48 45.72V34.28C47.999 33.8113 47.9054 33.3474 47.7246 32.915C47.5439 32.4826 47.2795 32.0901 46.9467 31.76ZM35.2533 25.6267C35.4573 25.4402 35.7237 25.3369 36 25.3369C36.2763 25.3369 36.5427 25.4402 36.7467 25.6267L44 32.6667L36.7067 39.7067C36.5027 39.8932 36.2363 39.9965 35.96 39.9965C35.6837 39.9965 35.4173 39.8932 35.2133 39.7067L28 32.6667L35.2533 25.6267ZM45.3333 45.72C45.3162 45.9817 45.1982 46.2266 45.0043 46.4031C44.8103 46.5797 44.5555 46.6742 44.2933 46.6667H27.7067C27.4445 46.6742 27.1897 46.5797 26.9957 46.4031C26.8018 46.2266 26.6838 45.9817 26.6667 45.72V35.1334L32.0667 40.3334L29.8533 42.4667C29.605 42.7165 29.4656 43.0545 29.4656 43.4067C29.4656 43.7589 29.605 44.0969 29.8533 44.3467C29.9773 44.4767 30.1262 44.5803 30.2911 44.6514C30.4561 44.7224 30.6337 44.7593 30.8133 44.76C31.1566 44.7587 31.4862 44.6249 31.7333 44.3867L34.0933 42.12C34.6795 42.4782 35.3531 42.6677 36.04 42.6677C36.7269 42.6677 37.4005 42.4782 37.9867 42.12L40.3467 44.3867C40.5938 44.6249 40.9234 44.7587 41.2667 44.76C41.4463 44.7593 41.6239 44.7224 41.7889 44.6514C41.9538 44.5803 42.1027 44.4767 42.2267 44.3467C42.475 44.0969 42.6144 43.7589 42.6144 43.4067C42.6144 43.0545 42.475 42.7165 42.2267 42.4667L40 40.3334L45.3333 35.1334V45.72Z" fill="white"/>
<defs>
<linearGradient id="paint0_linear_27_238" x1="72.0022" y1="72.0274" x2="-7.18889" y2="9.01242" gradientUnits="userSpaceOnUse">
<stop stop-color="#FE7E07"/>
<stop offset="1" stop-color="#FFDE67"/>
</linearGradient>
</defs>
</svg>
