<svg width="72" height="72" viewBox="0 0 72 72" fill="none" xmlns="http://www.w3.org/2000/svg">
<circle cx="36" cy="36" r="36" fill="url(#paint0_linear_27_245)"/>
<path d="M45.88 37.3334C45.5867 37.3334 45.28 37.2401 44.9867 37.1734C44.3931 37.0407 43.8095 36.8669 43.24 36.6534C42.6215 36.4284 41.9415 36.4401 41.3311 36.6862C40.7206 36.9324 40.2228 37.3956 39.9333 37.9867L39.64 38.6001C38.3451 37.8657 37.1488 36.9696 36.08 35.9334C35.0438 34.8646 34.1477 33.6683 33.4133 32.3734L34.0267 32.0934C34.6178 31.804 35.081 31.3061 35.3272 30.6957C35.5733 30.0852 35.585 29.4053 35.36 28.7867C35.1483 28.2121 34.9745 27.6242 34.84 27.0267C34.7733 26.7334 34.72 26.4267 34.68 26.1334C34.5181 25.1942 34.0262 24.3437 33.2928 23.7351C32.5595 23.1264 31.6329 22.7996 30.68 22.8134H26.6667C26.103 22.8127 25.5455 22.9311 25.0308 23.1609C24.5161 23.3906 24.0558 23.7266 23.68 24.1467C23.2964 24.5783 23.0108 25.0877 22.8428 25.6401C22.6748 26.1925 22.6283 26.7747 22.7067 27.3467C23.4315 32.8963 25.9669 38.0516 29.92 42.0134C33.8818 45.9665 39.0372 48.502 44.5867 49.2267C44.7597 49.24 44.9336 49.24 45.1067 49.2267C46.0899 49.2282 47.0392 48.8675 47.7733 48.2134C48.1935 47.8376 48.5294 47.3773 48.7592 46.8626C48.989 46.3479 49.1074 45.7904 49.1067 45.2267V41.2267C49.0995 40.3055 48.7745 39.4149 48.1866 38.7055C47.5987 37.9962 46.7839 37.5115 45.88 37.3334ZM46.5333 45.3334C46.5329 45.5195 46.4935 45.7034 46.4177 45.8733C46.342 46.0432 46.2315 46.1954 46.0933 46.3201C45.9472 46.4532 45.7733 46.5522 45.5842 46.6098C45.3951 46.6675 45.1956 46.6824 45 46.6534C40.0244 46.0036 35.4003 43.7361 31.84 40.2001C28.2766 36.6367 25.9894 31.9966 25.3333 27.0001C25.3044 26.8045 25.3192 26.605 25.3769 26.4159C25.4346 26.2268 25.5335 26.0529 25.6667 25.9067C25.7928 25.767 25.9472 25.6555 26.1195 25.5796C26.2919 25.5038 26.4784 25.4653 26.6667 25.4667H30.6667C30.9749 25.4592 31.2762 25.5587 31.5193 25.7483C31.7624 25.938 31.9323 26.206 32 26.5067C32 26.8667 32.12 27.2401 32.2 27.6001C32.3541 28.2986 32.5591 28.9848 32.8133 29.6534L30.9467 30.5334C30.6258 30.6807 30.3765 30.9492 30.2533 31.2801C30.12 31.6047 30.12 31.9688 30.2533 32.2934C32.1723 36.4038 35.4763 39.7078 39.5867 41.6267C39.9113 41.7601 40.2754 41.7601 40.6 41.6267C40.9309 41.5036 41.1994 41.2543 41.3467 40.9334L42.1867 39.0667C42.8745 39.3176 43.5783 39.5225 44.2933 39.6801C44.64 39.7601 45.0133 39.8267 45.3733 39.8801C45.6741 39.9478 45.9421 40.1177 46.1317 40.3608C46.3214 40.6039 46.4209 40.9052 46.4133 41.2134L46.5333 45.3334ZM38.6667 22.6667C38.36 22.6667 38.04 22.6667 37.7333 22.6667C37.3797 22.6968 37.0525 22.8661 36.8237 23.1374C36.5949 23.4087 36.4833 23.7598 36.5133 24.1134C36.5434 24.467 36.7127 24.7942 36.984 25.023C37.2553 25.2518 37.6064 25.3635 37.96 25.3334H38.6667C40.7884 25.3334 42.8232 26.1763 44.3235 27.6766C45.8238 29.1769 46.6667 31.2117 46.6667 33.3334C46.6667 33.5734 46.6667 33.8001 46.6667 34.0401C46.6371 34.3918 46.7482 34.7409 46.9757 35.0109C47.2031 35.2808 47.5283 35.4496 47.88 35.4801H47.9867C48.3204 35.4814 48.6426 35.3575 48.8895 35.1329C49.1363 34.9082 49.29 34.5992 49.32 34.2667C49.32 33.9601 49.32 33.6401 49.32 33.3334C49.32 30.5067 48.198 27.7957 46.2005 25.7957C44.203 23.7956 41.4933 22.6703 38.6667 22.6667ZM41.3333 33.3334C41.3333 33.687 41.4738 34.0262 41.7239 34.2762C41.9739 34.5263 42.313 34.6667 42.6667 34.6667C43.0203 34.6667 43.3594 34.5263 43.6095 34.2762C43.8595 34.0262 44 33.687 44 33.3334C44 31.9189 43.4381 30.5624 42.4379 29.5622C41.4377 28.562 40.0812 28.0001 38.6667 28.0001C38.313 28.0001 37.9739 28.1406 37.7239 28.3906C37.4738 28.6407 37.3333 28.9798 37.3333 29.3334C37.3333 29.687 37.4738 30.0262 37.7239 30.2762C37.9739 30.5263 38.313 30.6667 38.6667 30.6667C39.3739 30.6667 40.0522 30.9477 40.5523 31.4478C41.0524 31.9479 41.3333 32.6262 41.3333 33.3334Z" fill="white"/>
<defs>
<linearGradient id="paint0_linear_27_245" x1="72.0022" y1="72.0274" x2="-7.18889" y2="9.01242" gradientUnits="userSpaceOnUse">
<stop stop-color="#FE7E07"/>
<stop offset="1" stop-color="#FFDE67"/>
</linearGradient>
</defs>
</svg>
